<svg aria-hidden="true" style="position: absolute; width: 0; height: 0; overflow: hidden;" version="1.1" xmlns="http://www.w3.org/2000/svg" xmlns:xlink="http://www.w3.org/1999/xlink">
<defs>
<symbol id="icon-group6" viewBox="0 0 32 32">
<path d="M16.145 15.673c-0.13-0.167-0.208-0.38-0.208-0.612 0-0.023 0.001-0.046 0.002-0.068l-0 0.003v-0.981c0-0.301 0.068-0.53 0.205-0.686s0.371-0.234 0.703-0.234c0.312 0 0.534 0.066 0.665 0.2 0.143 0.17 0.213 0.378 0.197 0.587v0.23h-0.558v-0.234c0.002-0.077-0.003-0.153-0.016-0.229-0.010-0.055-0.039-0.103-0.080-0.136l-0-0c-0.050-0.034-0.112-0.054-0.178-0.054-0.008 0-0.017 0-0.025 0.001l0.001-0c-0.007-0.001-0.016-0.001-0.024-0.001-0.070 0-0.136 0.021-0.19 0.057l0.001-0.001c-0.046 0.037-0.079 0.089-0.092 0.148l-0 0.002c-0.014 0.067-0.022 0.145-0.022 0.224 0 0.007 0 0.013 0 0.020v-0.001 1.191c-0.009 0.115 0.016 0.229 0.072 0.334 0.029 0.036 0.067 0.064 0.11 0.080l0.002 0.001c0.045 0.018 0.095 0.024 0.144 0.019 0.007 0.001 0.015 0.001 0.023 0.001 0.065 0 0.125-0.020 0.175-0.055l-0.001 0.001c0.043-0.036 0.073-0.086 0.083-0.144l0-0.001c0.011-0.064 0.018-0.139 0.018-0.214 0-0.008-0-0.017-0-0.025l0 0.001v-0.242h0.559v0.221c0.001 0.017 0.002 0.038 0.002 0.058 0 0.212-0.073 0.407-0.196 0.561l0.001-0.002c-0.128 0.146-0.347 0.219-0.669 0.219s-0.564-0.078-0.702-0.24zM18.47 15.683c-0.141-0.153-0.212-0.376-0.212-0.67v-1.033c0-0.291 0.070-0.512 0.212-0.662s0.377-0.225 0.708-0.224c0.328 0 0.563 0.075 0.704 0.224s0.213 0.37 0.213 0.662v1.033c0 0.291-0.072 0.515-0.215 0.669s-0.377 0.231-0.702 0.231-0.565-0.078-0.708-0.23zM19.438 15.435c0.051-0.096 0.074-0.201 0.067-0.306v-1.264c0.001-0.010 0.001-0.022 0.001-0.034 0-0.097-0.025-0.189-0.068-0.268l0.001 0.003c-0.030-0.037-0.068-0.065-0.112-0.082l-0.002-0.001c-0.032-0.013-0.070-0.020-0.109-0.020-0.014 0-0.027 0.001-0.040 0.003l0.002-0c-0.011-0.001-0.024-0.002-0.038-0.002-0.040 0-0.077 0.007-0.112 0.021l0.002-0.001c-0.046 0.017-0.085 0.046-0.114 0.082l-0 0c-0.051 0.094-0.074 0.196-0.067 0.3v1.27c-0.007 0.106 0.016 0.21 0.067 0.306 0.032 0.032 0.073 0.058 0.118 0.076 0.043 0.017 0.092 0.027 0.143 0.027s0.101-0.010 0.146-0.028l-0.003 0.001c0.045-0.018 0.085-0.044 0.118-0.076v-0.006zM20.767 13.125h0.601l0.452 1.905 0.463-1.905h0.585l0.059 2.75h-0.433l-0.046-1.911-0.446 1.911h-0.347l-0.462-1.918-0.043 1.918h-0.437l0.054-2.75zM23.602 13.125h0.937c0.54 0 0.81 0.26 0.81 0.781 0 0.499-0.284 0.748-0.852 0.747h-0.319v1.222h-0.578l0.003-2.75zM24.402 14.3c0.057 0.006 0.115 0.002 0.17-0.014s0.106-0.040 0.148-0.073c0.066-0.093 0.096-0.202 0.083-0.31 0-0.009 0.001-0.020 0.001-0.030 0-0.078-0.010-0.153-0.030-0.225l0.001 0.006c-0.009-0.029-0.024-0.055-0.043-0.076l0 0c-0.020-0.023-0.044-0.041-0.071-0.055l-0.001-0.001c-0.067-0.028-0.145-0.045-0.227-0.045-0.011 0-0.022 0-0.032 0.001l0.002-0h-0.224v0.822h0.225zM26.182 13.125h0.621l0.637 2.75h-0.539l-0.126-0.634h-0.554l-0.129 0.634h-0.547l0.637-2.75zM26.713 14.922l-0.216-1.154-0.216 1.154h0.432zM27.955 13.125h0.405l0.774 1.568v-1.568h0.48v2.75h-0.385l-0.78-1.637v1.637h-0.496l0.001-2.75zM30.738 14.826l-0.644-1.697h0.543l0.393 1.090 0.369-1.090h0.531l-0.636 1.697v1.049h-0.555v-1.049zM17.038 17.076v0.144h-0.472v1.117h-0.198v-1.117h-0.474v-0.144h1.144zM18.517 18.338h-0.153c-0.001 0-0.002 0-0.004 0-0.015 0-0.028-0.005-0.039-0.012l0 0c-0.011-0.007-0.020-0.017-0.025-0.029l-0-0-0.137-0.3h-0.655l-0.136 0.3c-0.004 0.013-0.012 0.025-0.021 0.034l-0 0c-0.011 0.008-0.025 0.012-0.039 0.012-0.001 0-0.002-0-0.004-0h-0.152l0.578-1.261h0.201l0.586 1.256zM17.559 17.869h0.546l-0.232-0.513c-0.015-0.032-0.029-0.072-0.041-0.113l-0.002-0.006c-0.008 0.024-0.015 0.047-0.022 0.067l-0.021 0.053-0.229 0.512zM19.514 18.214c0.036 0.002 0.073 0.002 0.109 0 0.031-0.003 0.062-0.008 0.092-0.015 0.028-0.006 0.056-0.014 0.083-0.023 0.026-0.009 0.051-0.020 0.077-0.031v-0.284h-0.231c-0.001 0-0.002 0-0.003 0-0.011 0-0.021-0.004-0.029-0.010l0 0c-0.004-0.003-0.007-0.006-0.009-0.010l-0-0c-0.002-0.003-0.003-0.007-0.003-0.011 0-0 0-0.001 0-0.001v0-0.097h0.449v0.483c-0.070 0.044-0.151 0.079-0.238 0.101l-0.006 0.001c-0.048 0.012-0.096 0.020-0.145 0.026-0.056 0.005-0.112 0.008-0.169 0.008-0.002 0-0.005 0-0.007 0-0.102 0-0.199-0.017-0.29-0.049l0.006 0.002c-0.089-0.031-0.166-0.076-0.232-0.133l0.001 0.001c-0.062-0.055-0.112-0.121-0.148-0.196l-0.002-0.004c-0.034-0.075-0.053-0.162-0.053-0.253 0-0.003 0-0.006 0-0.009v0c-0-0.002-0-0.005-0-0.008 0-0.092 0.019-0.18 0.054-0.26l-0.002 0.004c0.033-0.075 0.084-0.143 0.149-0.2 0.066-0.056 0.145-0.101 0.232-0.131 0.099-0.032 0.204-0.048 0.31-0.047 0.054 0 0.108 0.004 0.161 0.011 0.047 0.006 0.093 0.017 0.138 0.032 0.041 0.013 0.079 0.030 0.116 0.050 0.035 0.020 0.069 0.042 0.101 0.066l-0.055 0.078c-0.005 0.007-0.011 0.013-0.018 0.017l-0 0c-0.008 0.004-0.017 0.007-0.027 0.007h-0c-0.013-0-0.026-0.004-0.036-0.010l0 0c-0.023-0.011-0.042-0.021-0.060-0.031l0.003 0.002c-0.022-0.012-0.047-0.024-0.074-0.033l-0.004-0.001c-0.029-0.011-0.065-0.020-0.102-0.027l-0.005-0.001c-0.042-0.007-0.091-0.011-0.141-0.011-0.002 0-0.004 0-0.006 0h0c-0.002-0-0.005-0-0.007-0-0.077 0-0.152 0.013-0.221 0.037l0.005-0.001c-0.064 0.022-0.123 0.056-0.17 0.1-0.048 0.046-0.084 0.099-0.107 0.157-0.025 0.062-0.039 0.135-0.039 0.21s0.014 0.148 0.040 0.214l-0.001-0.004c0.025 0.059 0.065 0.113 0.116 0.159 0.047 0.043 0.105 0.077 0.169 0.1 0.074 0.022 0.151 0.030 0.229 0.025zM21.357 18.194h0.631v0.144h-0.824v-1.261h0.197l-0.004 1.117zM22.645 18.337h-0.197v-1.261h0.197v1.261zM23.381 17.083c0.012 0.006 0.022 0.013 0.030 0.023l0 0 0.845 0.951c-0.001-0.007-0.001-0.015-0.001-0.023s0-0.016 0.001-0.024l-0 0.001v-0.94h0.172v1.266h-0.099c-0.002 0-0.005 0-0.007 0-0.013 0-0.025-0.003-0.036-0.007l0.001 0c-0.012-0.006-0.022-0.015-0.031-0.024l-0-0-0.844-0.95v0.981h-0.165v-1.261h0.103c0.011 0 0.022 0.002 0.032 0.006zM25.885 17.076v0.139h-0.701v0.416h0.568v0.134h-0.568v0.43h0.701v0.139h-0.904v-1.258h0.904zM5.162 9.289l8.781 2.152v7.543l-8.781-2.151v-7.544zM4.598 8.646v8.554l9.906 2.429v-8.553l-9.906-2.43z"></path>
<path d="M9.908 23.599l-9.908-2.432v-8.552l9.908 2.43v8.554z"></path>
<path d="M4.763 9.192l8.667 2.126-3.685 3.183-8.668-2.127 3.687-3.182zM4.598 8.646l-4.598 3.97 9.908 2.43 4.597-3.97-9.906-2.43zM10.465 23.118l4.040-3.489-4.040-0.991v4.48z"></path>
</symbol>
<symbol id="icon-group5" viewBox="0 0 32 32">
<path d="M2.416 23.805c0.124 0.14 0.189 0.316 0.186 0.496 0.001 0.011 0.001 0.024 0.001 0.038 0 0.111-0.025 0.216-0.069 0.31l0.002-0.004c-0.053 0.113-0.129 0.208-0.221 0.282l-0.002 0.001c-0.21 0.145-0.47 0.231-0.751 0.231-0.031 0-0.061-0.001-0.092-0.003l0.004 0h-1.475v-3.145h1.445c0.025-0.002 0.055-0.003 0.085-0.003 0.266 0 0.514 0.079 0.721 0.215l-0.005-0.003c0.093 0.072 0.168 0.162 0.216 0.264s0.071 0.213 0.065 0.325c0.008 0.173-0.051 0.344-0.168 0.481-0.112 0.124-0.267 0.211-0.44 0.245 0.196 0.033 0.372 0.128 0.498 0.269zM0.686 23.33h0.618c0.14 0.010 0.279-0.027 0.393-0.105 0.045-0.037 0.081-0.084 0.104-0.137l0.001-0.002c0.018-0.041 0.029-0.088 0.029-0.138 0-0.011-0-0.021-0.001-0.031l0 0.001c0.001-0.008 0.001-0.017 0.001-0.027 0-0.051-0.011-0.099-0.030-0.143l0.001 0.002c-0.024-0.055-0.059-0.102-0.103-0.139l-0-0c-0.1-0.068-0.223-0.109-0.356-0.109-0.017 0-0.034 0.001-0.051 0.002l0.002-0h-0.608v0.825zM1.756 24.536c0.048-0.038 0.087-0.087 0.113-0.142l0.001-0.002c0.021-0.044 0.033-0.096 0.033-0.15 0-0.009-0-0.018-0.001-0.026l0 0.001c0-0.007 0.001-0.015 0.001-0.023 0-0.056-0.013-0.109-0.035-0.157l0.001 0.002c-0.028-0.058-0.067-0.107-0.115-0.145l-0.001-0.001c-0.106-0.072-0.237-0.115-0.378-0.115-0.014 0-0.029 0-0.043 0.001l0.002-0h-0.647v0.865h0.656c0.147 0.008 0.294-0.030 0.414-0.109zM5.369 25.157l-0.803-1.229h-0.302v1.229h-0.691v-3.145h1.309c0.028-0.002 0.061-0.003 0.093-0.003 0.308 0 0.592 0.102 0.821 0.273l-0.004-0.003c0.183 0.171 0.294 0.396 0.311 0.634s-0.058 0.475-0.214 0.667c-0.162 0.167-0.377 0.283-0.618 0.319l-0.006 0.001 0.856 1.256h-0.752zM4.264 23.499h0.565c0.393 0 0.589-0.159 0.589-0.476 0-0.008 0.001-0.016 0.001-0.025 0-0.060-0.012-0.116-0.034-0.168l0.001 0.003c-0.027-0.064-0.065-0.118-0.112-0.162l-0-0c-0.107-0.081-0.243-0.13-0.391-0.13-0.019 0-0.038 0.001-0.057 0.002l0.002-0h-0.572l0.007 0.957zM9.148 24.524h-1.378l-0.243 0.633h-0.725l1.265-3.11h0.784l1.26 3.11h-0.724l-0.238-0.633zM8.964 24.047l-0.503-1.327-0.503 1.328h1.007zM13.878 25.157h-0.686l-1.539-2.138v2.138h-0.685v-3.145h0.685l1.539 2.151v-2.151h0.686v3.145zM17.795 24.404c-0.142 0.238-0.358 0.431-0.621 0.555-0.267 0.126-0.579 0.199-0.909 0.199-0.020 0-0.039-0-0.059-0.001l0.003 0h-1.221v-3.145h1.222c0.017-0 0.037-0.001 0.056-0.001 0.329 0 0.642 0.072 0.922 0.2l-0.014-0.006c0.263 0.121 0.479 0.312 0.621 0.549 0.141 0.256 0.215 0.538 0.215 0.825s-0.074 0.569-0.215 0.825zM17.009 24.329c0.186-0.195 0.301-0.459 0.303-0.75v-0c0-0.276-0.108-0.542-0.303-0.751-0.213-0.168-0.485-0.27-0.78-0.27-0.028 0-0.055 0.001-0.083 0.003l0.004-0h-0.476v2.036h0.476c0.023 0.002 0.051 0.002 0.078 0.002 0.296 0 0.568-0.102 0.784-0.272l-0.003 0.002zM9.578 4.519s8.857 3.062 8.67 7.494v7.494s-8.851-3.063-8.667-7.494l-0.003-7.494zM26.138 17.752c1.673-1.054 3.608-1.707 5.628-1.899v-2.346c-2.327 0.821-4.302 2.311-5.628 4.245z"></path>
<path d="M25.134 18.458c1.369-2.524 3.742-4.472 6.633-5.443v-6.76s-12.615 4.362-12.348 10.672v10.669s0.562-0.196 1.447-0.561c0-0.341 0-0.686 0.041-1.031 0.261-2.929 1.781-5.643 4.228-7.546z"></path>
<path d="M23.934 22.422c0.074-0.807 0.23-1.549 0.462-2.257l-0.020 0.072c-1.524 1.643-2.446 3.682-2.638 5.83-0.019 0.203-0.029 0.406-0.034 0.615 1.052-0.46 1.849-0.852 2.629-1.27l-0.203 0.1c-0.224-1.016-0.29-2.056-0.196-3.089zM24.436 22.461c-0.025 0.259-0.039 0.561-0.039 0.866 0 0.684 0.071 1.351 0.206 1.994l-0.011-0.063c3.446-1.888 7.319-4.806 7.17-8.332v-0.307c-2.462 0.252-4.766 1.238-6.557 2.805-0.395 0.888-0.668 1.918-0.765 2.998l-0.003 0.038z"></path>
</symbol>
<symbol id="icon-group4" viewBox="0 0 32 32">
<path d="M4.949 13.076h-0.001c-0.903 0-1.635 0.651-1.635 1.453v0.001c0 0.802 0.732 1.452 1.635 1.452h0.001c0.903 0 1.635-0.65 1.635-1.452v-0.001c0-0.802-0.732-1.453-1.635-1.453zM17.015 12.612c-0.003-1.114-0.502-2.182-1.388-2.97s-2.088-1.233-3.342-1.235c-1.254 0.002-2.457 0.446-3.344 1.234s-1.387 1.856-1.389 2.971v6.145s9.462-0.937 9.463-6.144v-0.001zM0 20.774c0.002 0.776 0.35 1.518 0.967 2.067s1.453 0.857 2.325 0.859c0.872-0.002 1.708-0.311 2.325-0.859s0.965-1.291 0.967-2.066v-4.276s-6.584 0.652-6.584 4.275zM3.292 21.54c-0.171 0-0.337-0.045-0.479-0.129-0.138-0.081-0.247-0.198-0.315-0.339l-0.002-0.005c-0.041-0.086-0.066-0.186-0.066-0.293 0-0.053 0.006-0.105 0.017-0.155l-0.001 0.005c0.033-0.149 0.115-0.285 0.236-0.392 0.12-0.106 0.27-0.18 0.436-0.209l0.005-0.001c0.050-0.009 0.108-0.015 0.168-0.015 0.119 0 0.232 0.021 0.337 0.061l-0.007-0.002c0.158 0.058 0.293 0.156 0.387 0.282s0.145 0.274 0.145 0.425c0 0.101-0.021 0.201-0.065 0.294-0.046 0.098-0.109 0.181-0.186 0.249l-0.001 0.001c-0.080 0.072-0.175 0.128-0.28 0.167-0.098 0.037-0.212 0.059-0.33 0.059-0 0-0 0-0.001 0h0v-0.003zM9.946 21.118h-0.635v0.656h-0.331v-1.606h1.046v0.268h-0.715v0.415h0.635v0.267zM11.536 21.007c0 0.158-0.028 0.297-0.084 0.416s-0.136 0.211-0.241 0.276c-0.098 0.061-0.217 0.097-0.345 0.097-0.004 0-0.008-0-0.012-0h0.001c-0.133 0-0.252-0.032-0.357-0.096-0.105-0.066-0.188-0.159-0.241-0.269l-0.002-0.004c-0.055-0.116-0.087-0.253-0.087-0.397 0-0.005 0-0.009 0-0.014v0.001-0.079c0-0.158 0.029-0.297 0.085-0.417s0.138-0.213 0.242-0.277c0.104-0.065 0.223-0.097 0.357-0.097s0.252 0.032 0.356 0.097c0.104 0.064 0.185 0.156 0.242 0.277s0.086 0.259 0.086 0.416v0.072zM11.201 20.935c0-0.168-0.030-0.296-0.090-0.384-0.054-0.080-0.143-0.131-0.245-0.131-0.005 0-0.009 0-0.014 0l0.001-0c-0.004-0-0.008-0-0.013-0-0.101 0-0.191 0.051-0.244 0.129l-0.001 0.001c-0.060 0.086-0.091 0.213-0.091 0.379v0.078c0 0.164 0.030 0.291 0.090 0.382s0.147 0.136 0.261 0.136c0.004 0 0.008 0 0.013 0 0.101 0 0.19-0.051 0.242-0.129l0.001-0.001c0.059-0.088 0.090-0.215 0.090-0.382v-0.078zM12.609 21.353c0-0.003 0-0.006 0-0.009 0-0.054-0.026-0.103-0.066-0.133l-0-0c-0.044-0.034-0.123-0.069-0.238-0.106-0.106-0.033-0.196-0.070-0.282-0.115l0.010 0.005c-0.183-0.098-0.274-0.231-0.274-0.398 0-0.087 0.024-0.164 0.073-0.232s0.12-0.122 0.211-0.16c0.092-0.038 0.195-0.057 0.309-0.057 0.115 0 0.217 0.021 0.307 0.063s0.159 0.1 0.208 0.175c0.050 0.076 0.075 0.162 0.075 0.258h-0.331c0-0.073-0.023-0.13-0.069-0.171s-0.111-0.062-0.195-0.062c-0.081 0-0.144 0.017-0.189 0.052-0.041 0.029-0.067 0.077-0.067 0.131 0 0.001 0 0.003 0 0.004v-0c0 0.052 0.026 0.096 0.078 0.131s0.131 0.069 0.233 0.099c0.188 0.056 0.325 0.127 0.411 0.211s0.129 0.188 0.129 0.313c0 0.139-0.053 0.248-0.158 0.328s-0.246 0.118-0.424 0.118c-0.123 0-0.236-0.023-0.338-0.067-0.095-0.041-0.174-0.104-0.232-0.185l-0.001-0.002c-0.050-0.074-0.079-0.165-0.079-0.264 0-0.003 0-0.007 0-0.010v0h0.332c0 0.177 0.106 0.266 0.318 0.266 0.079 0 0.14-0.016 0.184-0.047 0.040-0.029 0.066-0.076 0.066-0.128 0-0.002-0-0.005-0-0.007v0zM14.375 20.436h-0.492v1.338h-0.331v-1.338h-0.485v-0.268h1.308v0.268zM15.531 21.078h-0.635v0.43h0.745v0.266h-1.076v-1.606h1.074v0.268h-0.744v0.383h0.635v0.259zM16.43 21.186h-0.264v0.588h-0.331v-1.606h0.597c0.19 0 0.336 0.042 0.439 0.127s0.154 0.204 0.154 0.358c0 0.109-0.024 0.201-0.072 0.275-0.053 0.077-0.126 0.137-0.212 0.173l-0.003 0.001 0.347 0.656v0.015h-0.355l-0.301-0.588zM16.166 20.918h0.267c0.083 0 0.147-0.021 0.193-0.063 0.042-0.041 0.068-0.099 0.068-0.163 0-0.004-0-0.009-0-0.013l0 0.001c0-0.076-0.021-0.136-0.065-0.178s-0.108-0.065-0.198-0.065h-0.266v0.482zM18.171 21.208v0.566h-0.331v-1.606h0.626c0.12 0 0.227 0.022 0.318 0.066s0.163 0.107 0.212 0.188c0.049 0.081 0.074 0.173 0.074 0.277 0 0.157-0.054 0.282-0.162 0.373s-0.256 0.136-0.447 0.136h-0.29zM18.171 20.94h0.296c0.088 0 0.154-0.021 0.2-0.062 0.047-0.041 0.070-0.1 0.070-0.177 0-0.003 0-0.008 0-0.012 0-0.069-0.026-0.132-0.070-0.179l0 0c-0.046-0.049-0.11-0.073-0.192-0.075h-0.303v0.504zM20.264 21.078h-0.635v0.43h0.745v0.266h-1.076v-1.606h1.074v0.268h-0.744v0.383h0.635v0.259zM21.8 20.436h-0.492v1.338h-0.331v-1.338h-0.485v-0.268h1.308v0.268zM22.956 21.078h-0.635v0.43h0.745v0.266h-1.077v-1.606h1.074v0.268h-0.743v0.383h0.635v0.259zM23.855 21.186h-0.264v0.588h-0.331v-1.606h0.597c0.19 0 0.336 0.042 0.439 0.127s0.154 0.204 0.154 0.358c0 0.109-0.024 0.201-0.072 0.275-0.053 0.077-0.126 0.137-0.212 0.173l-0.003 0.001 0.347 0.656v0.015h-0.355l-0.301-0.588zM23.591 20.918h0.267c0.083 0 0.147-0.021 0.193-0.063 0.043-0.042 0.069-0.099 0.069-0.163 0-0.004-0-0.008-0-0.013l0 0.001c0-0.076-0.021-0.136-0.065-0.178-0.043-0.044-0.108-0.065-0.197-0.065h-0.266v0.482zM25.536 21.353c0-0.003 0-0.006 0-0.009 0-0.055-0.026-0.103-0.066-0.134l-0-0c-0.044-0.034-0.123-0.069-0.238-0.106-0.106-0.033-0.196-0.070-0.282-0.115l0.010 0.005c-0.183-0.098-0.274-0.231-0.274-0.398 0-0.087 0.024-0.164 0.073-0.232 0.049-0.068 0.12-0.122 0.211-0.16s0.195-0.057 0.309-0.057c0.115 0 0.217 0.021 0.307 0.063s0.159 0.1 0.208 0.175c0.050 0.076 0.075 0.162 0.075 0.258h-0.331c0-0.073-0.023-0.13-0.069-0.171s-0.111-0.062-0.195-0.062c-0.081 0-0.144 0.017-0.189 0.052-0.041 0.029-0.068 0.077-0.068 0.131 0 0.001 0 0.003 0 0.004v-0c0 0.052 0.026 0.096 0.079 0.131s0.131 0.069 0.233 0.099c0.188 0.056 0.325 0.127 0.411 0.211s0.129 0.188 0.129 0.313c0 0.139-0.053 0.248-0.158 0.328s-0.247 0.118-0.424 0.118c-0.123 0-0.236-0.023-0.338-0.067-0.095-0.041-0.174-0.104-0.232-0.185l-0.001-0.002c-0.050-0.074-0.079-0.165-0.079-0.264 0-0.003 0-0.007 0-0.010v0h0.332c0 0.177 0.106 0.266 0.318 0.266 0.079 0 0.14-0.016 0.184-0.047 0.040-0.029 0.066-0.076 0.066-0.128 0-0.002-0-0.004-0-0.007v0z"></path>
</symbol>
<symbol id="icon-group3" viewBox="0 0 32 32">
<path d="M5.266 30.032c0.011 0 0.023 0.002 0.033 0.007 0.011 0.004 0.020 0.009 0.028 0.016l-0-0 0.155 0.149c-0.121 0.119-0.269 0.215-0.437 0.281-0.196 0.071-0.406 0.106-0.619 0.101-0.199 0.004-0.397-0.028-0.581-0.094-0.17-0.062-0.316-0.153-0.439-0.267l0.001 0.001c-0.12-0.113-0.216-0.25-0.281-0.403l-0.003-0.008c-0.063-0.151-0.099-0.327-0.099-0.511 0-0.006 0-0.011 0-0.017v0.001c-0-0.008-0-0.018-0-0.027 0-0.362 0.157-0.688 0.407-0.912l0.001-0.001c0.132-0.116 0.291-0.208 0.465-0.268 0.191-0.064 0.395-0.097 0.599-0.095 0.19-0.004 0.379 0.026 0.556 0.086 0.154 0.058 0.295 0.139 0.417 0.238l-0.13 0.159c-0.009 0.011-0.020 0.021-0.033 0.028l-0.001 0c-0.013 0.008-0.029 0.012-0.045 0.012-0.002 0-0.005-0-0.007-0l0 0c-0.021-0.001-0.041-0.007-0.057-0.017l0.001 0-0.069-0.043-0.097-0.053c-0.089-0.043-0.191-0.076-0.299-0.094l-0.006-0.001c-0.063-0.011-0.136-0.017-0.211-0.017-0.007 0-0.014 0-0.021 0h0.001c-0.004-0-0.009-0-0.014-0-0.149 0-0.292 0.026-0.425 0.074l0.009-0.003c-0.131 0.046-0.243 0.113-0.339 0.199l0.001-0.001c-0.097 0.092-0.171 0.199-0.219 0.316-0.050 0.119-0.079 0.258-0.079 0.403 0 0.005 0 0.011 0 0.016v-0.001c-0 0.005-0 0.011-0 0.017 0 0.147 0.029 0.287 0.082 0.414l-0.003-0.007c0.048 0.116 0.121 0.223 0.215 0.315 0.089 0.085 0.199 0.152 0.322 0.196 0.127 0.046 0.262 0.068 0.399 0.067 0.079 0.001 0.159-0.003 0.237-0.014 0.197-0.020 0.373-0.099 0.513-0.218l-0.001 0.001c0.020-0.016 0.045-0.026 0.073-0.027h0zM9.745 29.286c0 0.005 0 0.010 0 0.016 0 0.184-0.039 0.358-0.108 0.517l0.003-0.008c-0.069 0.161-0.168 0.296-0.29 0.406l-0.001 0.001c-0.129 0.115-0.281 0.206-0.449 0.265l-0.009 0.003c-0.176 0.060-0.379 0.094-0.589 0.094s-0.414-0.035-0.603-0.098l0.013 0.004c-0.176-0.063-0.327-0.154-0.456-0.269l0.001 0.001c-0.124-0.112-0.224-0.249-0.292-0.403l-0.003-0.008c-0.066-0.155-0.105-0.335-0.105-0.525s0.039-0.37 0.108-0.534l-0.003 0.009c0.066-0.153 0.166-0.293 0.295-0.412 0.129-0.112 0.284-0.2 0.455-0.258 0.176-0.061 0.379-0.096 0.589-0.096s0.414 0.035 0.603 0.1l-0.013-0.004c0.172 0.061 0.328 0.152 0.457 0.268 0.128 0.117 0.228 0.255 0.293 0.405 0.072 0.169 0.107 0.348 0.105 0.528zM9.338 29.286c0-0.006 0-0.014 0-0.021 0-0.144-0.027-0.281-0.077-0.407l0.003 0.008c-0.094-0.243-0.287-0.429-0.529-0.512l-0.006-0.002c-0.128-0.044-0.275-0.069-0.428-0.069s-0.301 0.025-0.438 0.072l0.010-0.003c-0.127 0.045-0.237 0.113-0.328 0.199l0-0c-0.091 0.086-0.162 0.191-0.208 0.309l-0.002 0.006c-0.047 0.125-0.074 0.27-0.074 0.421s0.027 0.296 0.077 0.43l-0.003-0.009c0.094 0.243 0.289 0.429 0.532 0.51l0.006 0.002c0.276 0.090 0.58 0.090 0.857 0 0.124-0.044 0.236-0.111 0.327-0.197 0.093-0.092 0.164-0.199 0.208-0.315 0.052-0.136 0.077-0.279 0.074-0.422zM12.801 29.728l0.041 0.095c0.016-0.033 0.029-0.064 0.045-0.095 0.017-0.037 0.034-0.067 0.053-0.096l-0.002 0.004 0.991-1.564c0.020-0.028 0.037-0.044 0.057-0.050s0.042-0.008 0.066-0.008c0.005 0 0.011 0 0.016 0l-0.001-0h0.293v2.545h-0.347v-1.951c-0.001-0.013-0.001-0.028-0.001-0.044s0.001-0.031 0.002-0.046l-0 0.002-0.998 1.587c-0.014 0.025-0.034 0.045-0.058 0.058l-0.001 0c-0.024 0.013-0.053 0.021-0.084 0.021-0.001 0-0.001 0-0.002 0h-0.056c-0.001 0-0.001 0-0.002 0-0.031 0-0.059-0.008-0.084-0.022l0.001 0c-0.025-0.014-0.044-0.034-0.057-0.058l-0-0.001-1.026-1.596v2.043h-0.335v-2.54h0.292c0.004-0 0.009-0 0.014-0 0.024 0 0.048 0.003 0.070 0.009l-0.002-0c0.024 0.010 0.043 0.027 0.054 0.048l1.012 1.567c0.018 0.026 0.035 0.056 0.049 0.088l0.001 0.003zM16.529 29.601v0.954h-0.387v-2.541h0.865c0.010-0 0.021-0 0.032-0 0.16 0 0.315 0.020 0.463 0.059l-0.013-0.003c0.125 0.031 0.242 0.085 0.341 0.158 0.083 0.066 0.148 0.149 0.192 0.245l0.002 0.004c0.046 0.104 0.068 0.214 0.066 0.325 0 0.005 0 0.010 0 0.016 0 0.23-0.11 0.434-0.279 0.563l-0.002 0.001c-0.1 0.077-0.217 0.134-0.343 0.169-0.131 0.038-0.281 0.059-0.436 0.059-0.011 0-0.022-0-0.032-0l-0.468-0.007zM16.529 29.329h0.469c0.102 0.001 0.203-0.012 0.301-0.039 0.083-0.024 0.155-0.062 0.218-0.111l-0.002 0.001c0.109-0.090 0.178-0.225 0.178-0.377 0-0.002 0-0.004-0-0.006v0c0.001-0.008 0.001-0.017 0.001-0.027 0-0.065-0.014-0.127-0.040-0.182l0.001 0.003c-0.032-0.069-0.078-0.128-0.134-0.174l-0.001-0.001c-0.13-0.087-0.289-0.139-0.461-0.139-0.022 0-0.043 0.001-0.064 0.002l0.003-0h-0.469v1.048zM21.741 30.559h-0.306c-0.002 0-0.004 0-0.006 0-0.030 0-0.057-0.009-0.080-0.024l0.001 0c-0.022-0.015-0.039-0.035-0.051-0.058l-0-0.001-0.263-0.615h-1.325l-0.273 0.615c-0.024 0.049-0.073 0.083-0.131 0.083-0.001 0-0.003-0-0.004-0h-0.307l1.163-2.546h0.403l1.179 2.546zM19.821 29.613h1.094l-0.461-1.035c-0.036-0.078-0.064-0.158-0.087-0.24l-0.045 0.134c-0.014 0.040-0.028 0.078-0.043 0.107l-0.457 1.035zM23.416 28.025c0.023 0.011 0.043 0.026 0.058 0.046l1.697 1.919v-1.976h0.347v2.546h-0.193c-0.002 0-0.004 0-0.006 0-0.027 0-0.052-0.006-0.075-0.015l0.001 0c-0.024-0.012-0.045-0.028-0.062-0.047l-0-0-1.695-1.916c0.001 0.013 0.001 0.028 0.001 0.044s-0 0.031-0.002 0.046l0-0.002v1.891h-0.347v-2.545h0.206c0.023 0 0.048 0.004 0.070 0.012zM28.375 29.547v1.010h-0.388v-1.010l-1.072-1.533h0.347c0.003-0 0.006-0 0.008-0 0.028 0 0.054 0.008 0.075 0.022l-0.001-0c0.021 0.016 0.039 0.036 0.053 0.057l0.671 0.99c0.027 0.042 0.050 0.080 0.070 0.117s0.036 0.073 0.049 0.108l0.050-0.11c0.019-0.040 0.041-0.079 0.066-0.116l0.661-0.996c0.014-0.021 0.031-0.038 0.049-0.054l0-0c0.021-0.016 0.048-0.026 0.078-0.026 0.002 0 0.005 0 0.007 0h0.35l-1.074 1.54zM12.609 23.742c0.169 0.018 0.339 0.033 0.512 0.047 2.616-1.017 4.829-2.681 6.363-4.784s2.319-4.553 2.259-7.043l-2.884-2.505c0.587 2.651 0.313 5.39-0.791 7.913s-2.994 4.729-5.459 6.372z"></path>
<path d="M11.58 23.625l0.078 0.014c2.634-1.637 4.641-3.922 5.764-6.562 1.123-2.638 1.308-5.51 0.533-8.242l-4.107-3.568c1.66 2.933 2.33 6.215 1.927 9.465-0.401 3.25-1.856 6.334-4.196 8.893zM25.506 14.903c-0.698 2.736-2.392 5.202-4.832 7.034-0.666 0.507-1.418 0.983-2.209 1.392l-0.086 0.040c1.987-0.507 3.812-1.404 5.337-2.622s2.707-2.722 3.456-4.399l-1.665-1.446z"></path>
<path d="M24.853 14.5l-2.371-2.060c-0.046 2.349-0.814 4.645-2.226 6.648s-3.416 3.642-5.803 4.745h0.011c0.532 0 1.063-0.028 1.591-0.082 2.231-0.791 4.202-2.050 5.737-3.664s2.586-3.534 3.060-5.586zM11.922 3.763l-2.829-2.46c-2.529 0.848-4.703 2.34-6.24 4.282s-2.362 4.24-2.37 6.595c0.009 2.603 1.018 5.129 2.866 7.177 1.847 2.049 4.428 3.504 7.334 4.134 2.594-2.746 4.113-6.14 4.336-9.687s-0.863-7.065-3.098-10.040zM31.388 14.121c-0.010-3.088-1.427-6.047-3.94-8.23s-5.919-3.415-9.473-3.423c-0.008-0-0.018-0-0.028-0-1.708 0-3.349 0.284-4.88 0.808l0.106-0.032 17.319 15.048c0.564-1.226 0.894-2.659 0.896-4.17v-0.001z"></path>
</symbol>
<symbol id="icon-group2" viewBox="0 0 32 32">
<path d="M14.258 1.851h-0.083c-0.127-0.008-0.254-0.011-0.38-0.014h-0.275c-0.24 0-0.484 0.006-0.727 0.018-0.008-0.001-0.018-0.001-0.027-0.001s-0.019 0-0.029 0.001l0.001-0c-2.331 0.136-4.495 0.719-6.452 1.665l0.102-0.044-0.261 0.126v13.368l0.611-0.207c0.536-0.184 1.107-0.35 1.698-0.504 1.46-0.391 3.141-0.626 4.873-0.649l0.014-0v1.757c-0.219 0.001-0.431 0.007-0.643 0.018h-0.051c-1.372 0.077-2.658 0.283-3.896 0.608l0.136-0.030c-1.702 0.432-3.193 1.030-4.578 1.795l0.098-0.050v-17.146c1.353-0.804 2.918-1.46 4.576-1.885l0.124-0.027c1.328-0.357 2.853-0.565 4.426-0.571h0.262c0.309 0.008 0.61 0.022 0.892 0.043 0.814 0.058 1.567 0.183 2.295 0.371l-0.088-0.019v1.729c-0.63-0.155-1.376-0.27-2.139-0.324l-0.043-0.002c-0.149-0.012-0.298-0.025-0.437-0.025zM17.3 3.618c0.383 0.029 0.781 0.043 1.182 0.043 1.657-0.006 3.261-0.224 4.789-0.627l-0.132 0.030c1.701-0.434 3.191-1.032 4.576-1.797l-0.099 0.050v16.839c-1.353 0.804-2.919 1.459-4.576 1.885l-0.125 0.027c-1.328 0.356-2.853 0.563-4.426 0.569h-0.004c-0.032 0-0.071 0-0.109 0-1.154 0-2.275-0.145-3.344-0.417l0.094 0.020v-16.949c0.26 0.060 0.527 0.115 0.799 0.161 0.375 0.067 0.847 0.125 1.325 0.161l0.050 0.003zM25.87 3.748l-0.611 0.205c-0.561 0.19-1.129 0.358-1.698 0.508-1.521 0.407-3.269 0.645-5.071 0.651h-0.004c-0.398 0-0.765-0.011-1.119-0.034l-0.487-0.033v13.752l0.418 0.037c0.388 0.034 0.788 0.051 1.191 0.051 1.423-0.006 2.799-0.195 4.11-0.543l-0.113 0.026c1.198-0.304 2.238-0.688 3.223-1.166l-0.1 0.044 0.261-0.126v-13.373z"></path>
<path d="M5.577 25.566c-0.164-0.17-0.394-0.275-0.648-0.275-0.011 0-0.022 0-0.033 0.001l0.002-0c-0.004-0-0.009-0-0.014-0-0.137 0-0.267 0.027-0.386 0.076l0.007-0.002c-0.232 0.093-0.412 0.275-0.5 0.502l-0.002 0.006c-0.048 0.121-0.072 0.249-0.070 0.379v2.291c-0.006 0.161 0.025 0.322 0.090 0.47 0.054 0.117 0.132 0.222 0.229 0.307 0.091 0.077 0.199 0.133 0.314 0.163 0.112 0.031 0.227 0.047 0.342 0.048 0.127 0.001 0.254-0.026 0.37-0.080 0.344-0.152 0.58-0.491 0.58-0.884v-0.257h-0.6v0.204c0 0.004 0 0.009 0 0.014 0 0.068-0.013 0.134-0.036 0.194l0.001-0.004c-0.020 0.051-0.050 0.094-0.087 0.129l-0 0c-0.069 0.053-0.156 0.086-0.25 0.088h-0c-0.011 0.001-0.023 0.002-0.035 0.002-0.1 0-0.189-0.049-0.245-0.124l-0.001-0.001c-0.050-0.081-0.080-0.179-0.080-0.284 0-0.008 0-0.016 0.001-0.025l-0 0.001v-2.136c-0.004-0.118 0.022-0.236 0.074-0.342 0.055-0.085 0.15-0.141 0.258-0.141 0.012 0 0.025 0.001 0.037 0.002l-0.001-0c0.003-0 0.007-0 0.011-0 0.105 0 0.198 0.051 0.256 0.129l0.001 0.001c0.062 0.081 0.099 0.183 0.099 0.294 0 0.004-0 0.009-0 0.013v-0.001 0.198h0.593v-0.233c0-0.003 0-0.007 0-0.010 0-0.14-0.027-0.275-0.076-0.398l0.003 0.007c-0.047-0.125-0.115-0.233-0.201-0.323l0 0zM9.134 25.54c-0.183-0.155-0.421-0.25-0.681-0.252h-0c-0.122 0-0.243 0.022-0.357 0.064-0.247 0.089-0.442 0.271-0.546 0.502l-0.002 0.006c-0.060 0.14-0.091 0.291-0.088 0.444v2.197c-0.004 0.155 0.026 0.308 0.088 0.45 0.054 0.118 0.133 0.223 0.232 0.307 0.092 0.085 0.199 0.151 0.316 0.193 0.115 0.042 0.235 0.065 0.357 0.065 0.262-0.001 0.501-0.098 0.682-0.259l-0.001 0.001c0.095-0.085 0.173-0.19 0.226-0.307 0.062-0.142 0.091-0.296 0.088-0.45v-2.197c0-0.006 0-0.013 0-0.020 0-0.153-0.032-0.299-0.090-0.431l0.003 0.007c-0.056-0.125-0.132-0.232-0.225-0.32l-0-0zM8.855 28.501c0.001 0.010 0.001 0.022 0.001 0.034 0 0.111-0.046 0.212-0.12 0.284l-0 0c-0.076 0.064-0.174 0.103-0.282 0.103s-0.206-0.039-0.283-0.103l0.001 0.001c-0.074-0.072-0.12-0.172-0.12-0.283 0-0.012 0.001-0.024 0.002-0.036l-0 0.002v-2.197c-0.001-0.010-0.001-0.022-0.001-0.034 0-0.111 0.046-0.212 0.12-0.284l0-0c0.076-0.064 0.174-0.103 0.282-0.103s0.206 0.039 0.283 0.103l-0.001-0.001c0.074 0.072 0.12 0.172 0.12 0.283 0 0.012-0.001 0.024-0.002 0.036l0-0.002v2.197zM13.806 29.482v-4.16h-0.575l-0.757 2.202h-0.010l-0.763-2.202h-0.569v4.159h0.594v-2.53h0.011l0.581 1.788h0.296l0.587-1.789h0.010v2.53h0.594zM17.182 25.614c-0.091-0.103-0.207-0.181-0.336-0.227-0.122-0.041-0.262-0.065-0.408-0.065-0.008 0-0.016 0-0.024 0l0.001-0h-0.883v4.159h0.593v-1.624h0.305c0.185 0.008 0.369-0.031 0.535-0.114 0.136-0.076 0.246-0.184 0.323-0.314l0.002-0.004c0.068-0.11 0.115-0.234 0.136-0.362 0.021-0.131 0.032-0.282 0.032-0.436 0-0.013-0-0.027-0-0.040l0 0.002c0.006-0.199-0.014-0.399-0.058-0.594-0.042-0.15-0.118-0.278-0.219-0.382l0 0zM16.877 26.882c-0.003 0.080-0.023 0.154-0.056 0.22l0.001-0.003c-0.034 0.064-0.087 0.114-0.151 0.144l-0.002 0.001c-0.073 0.034-0.159 0.053-0.249 0.053-0.011 0-0.021-0-0.032-0.001l0.002 0h-0.27v-1.413h0.305c0.008-0 0.018-0.001 0.027-0.001 0.087 0 0.17 0.020 0.244 0.055l-0.003-0.001c0.061 0.036 0.109 0.088 0.138 0.151l0.001 0.002c0.033 0.072 0.050 0.152 0.052 0.232v0.277c0 0.097 0.006 0.196 0 0.286h-0.006zM19.99 25.323h-0.486l-0.917 4.159h0.593l0.174-0.894h0.808l0.174 0.894h0.593l-0.939-4.159zM19.443 28.022l0.292-1.508h0.011l0.29 1.508h-0.592zM23.819 27.829h-0.011l-0.895-2.506h-0.57v4.159h0.593v-2.501h0.012l0.906 2.501h0.557v-4.16h-0.592v2.506zM27.254 25.358l-0.477 1.654h-0.012l-0.477-1.654h-0.627l0.814 2.401v1.758h0.593v-1.758l0.814-2.401h-0.628zM3.925 30.657h0.286v0.801h0.194v-0.801h0.284v-0.164h-0.763v0.164zM6.326 30.492l-0.374 0.966h0.206l0.080-0.22h0.385l0.083 0.219h0.211l-0.384-0.966h-0.206zM6.296 31.076l0.131-0.357 0.131 0.357h-0.263zM8.699 31.102h0.223v0.124c-0.062 0.050-0.142 0.081-0.229 0.081h-0c-0.004 0-0.009 0-0.014 0-0.077 0-0.146-0.036-0.191-0.092l-0-0c-0.045-0.064-0.072-0.144-0.072-0.23 0-0.008 0-0.015 0.001-0.023l-0 0.001c0-0.215 0.093-0.322 0.278-0.322 0.006-0.001 0.014-0.001 0.021-0.001 0.095 0 0.175 0.065 0.197 0.153l0 0.001 0.191-0.037c-0.041-0.189-0.177-0.284-0.409-0.284-0.004-0-0.008-0-0.013-0-0.125 0-0.239 0.047-0.325 0.125l0-0c-0.087 0.085-0.14 0.204-0.14 0.335 0 0.013 0.001 0.025 0.001 0.038l-0-0.002c-0 0.007-0 0.015-0 0.022 0 0.13 0.047 0.249 0.125 0.341l-0.001-0.001c0.085 0.088 0.205 0.142 0.336 0.142 0.011 0 0.021-0 0.031-0.001l-0.001 0c0.005 0 0.011 0 0.016 0 0.152 0 0.29-0.058 0.393-0.154l-0 0v-0.38h-0.418v0.162zM11.123 30.492h-0.196v0.966h0.676v-0.165h-0.481v-0.801zM13.173 30.492h-0.196v0.966h0.196v-0.966zM15.177 31.137l-0.396-0.645h-0.189v0.966h0.181v-0.632l0.388 0.631h0.194v-0.966h-0.179v0.645zM16.988 31.033h0.481v-0.164h-0.481v-0.212h0.517v-0.164h-0.713v0.966h0.733v-0.165h-0.537v-0.261zM21.381 30.873h-0.38v-0.381h-0.193v0.966h0.193v-0.423h0.38v0.423h0.194v-0.966h-0.194v0.38zM23.203 31.033h0.483v-0.164h-0.483v-0.212h0.519v-0.164h-0.712v0.966h0.732v-0.165h-0.537v-0.261zM25.674 31.033c0.168-0.026 0.254-0.115 0.254-0.269 0.001-0.008 0.002-0.018 0.002-0.027 0-0.077-0.038-0.145-0.096-0.187l-0.001-0c-0.071-0.037-0.156-0.058-0.245-0.058-0.013 0-0.026 0-0.039 0.001l0.002-0h-0.409v0.966h0.194v-0.405h0.038c0.005-0 0.010-0 0.016-0 0.038 0 0.074 0.008 0.107 0.023l-0.002-0.001c0.028 0.018 0.052 0.042 0.069 0.071l0.211 0.307h0.232l-0.118-0.189c-0.053-0.094-0.125-0.172-0.211-0.23l-0.002-0.002zM25.479 30.899h-0.143v-0.243h0.153c0.012-0.001 0.026-0.002 0.041-0.002 0.056 0 0.109 0.009 0.16 0.026l-0.004-0.001c0.026 0.023 0.043 0.057 0.043 0.095 0 0.042-0.020 0.079-0.051 0.102l-0 0c-0.048 0.015-0.104 0.024-0.161 0.024-0.013 0-0.025-0-0.038-0.001l0.002 0zM27.538 31.033h0.481v-0.164h-0.481v-0.212h0.519v-0.164h-0.715v0.966h0.733v-0.165h-0.537v-0.261z"></path>
</symbol>
<symbol id="icon-group1" viewBox="0 0 32 32">
<path d="M6.128 0.088l4.771 4.517-8.857-0.005v21.915h23.149v-8.379l4.766 4.512v-22.559h-23.83zM24.982 17.607l-13.528-12.807h13.528v12.807zM20.782 23.31h-15.076v-14.74h1.066v13.741h14.011v0.998zM9.266 29.433l-0.557 1.147-0.557-1.147h-0.467l0.813 1.529v0.891h0.422v-0.891l0.811-1.529h-0.465zM9.966 31.853l0.196-0.563h0.938l0.197 0.563h0.439l-0.916-2.42h-0.378l-0.914 2.42h0.437zM10.631 29.947l0.351 1.004h-0.701l0.351-1.004zM12.848 30.893c-0.057 0.085-0.091 0.19-0.091 0.303 0 0.001 0 0.002 0 0.003v-0c0 0.204 0.072 0.37 0.214 0.497s0.336 0.191 0.575 0.191c0.239 0 0.445-0.065 0.618-0.195l0.136 0.161h0.468l-0.355-0.42c0.14-0.191 0.209-0.436 0.209-0.733h-0.351c0 0.163-0.034 0.31-0.101 0.444l-0.468-0.552 0.165-0.12c0.1-0.068 0.184-0.152 0.249-0.249l0.002-0.003c0.048-0.079 0.076-0.174 0.076-0.275 0-0.001 0-0.003-0-0.004v0c0-0.003 0-0.007 0-0.010 0-0.149-0.065-0.283-0.169-0.374l-0.001-0c-0.108-0.097-0.251-0.157-0.408-0.157-0.008 0-0.017 0-0.025 0l0.001-0c-0.195 0-0.35 0.056-0.465 0.167-0.116 0.11-0.173 0.259-0.173 0.449 0 0.077 0.018 0.157 0.054 0.24 0.038 0.083 0.104 0.184 0.197 0.302-0.179 0.129-0.3 0.24-0.36 0.334zM13.94 31.427c-0.104 0.084-0.237 0.135-0.382 0.136h-0c-0.006 0-0.013 0-0.020 0-0.104 0-0.198-0.040-0.269-0.105l0 0c-0.067-0.066-0.108-0.157-0.108-0.259 0-0.005 0-0.009 0-0.014l-0 0.001c0-0.13 0.067-0.245 0.2-0.346l0.052-0.037 0.528 0.623zM13.507 30.356c-0.114-0.141-0.172-0.258-0.172-0.351 0-0.080 0.024-0.148 0.070-0.201 0.044-0.049 0.107-0.080 0.177-0.080 0.004 0 0.007 0 0.011 0l-0.001-0c0.003-0 0.006-0 0.009-0 0.067 0 0.127 0.026 0.173 0.068l-0-0c0.048 0.044 0.072 0.098 0.072 0.161 0 0.002 0 0.005 0 0.008 0 0.090-0.040 0.171-0.103 0.226l-0 0-0.052 0.042-0.184 0.127zM17.446 31.67c0.166-0.144 0.261-0.347 0.286-0.605h-0.419c-0.022 0.173-0.075 0.296-0.158 0.37s-0.208 0.112-0.372 0.112c-0.18 0-0.318-0.068-0.412-0.206-0.093-0.137-0.14-0.336-0.14-0.598v-0.214c0.003-0.259 0.052-0.454 0.15-0.587 0.099-0.134 0.24-0.202 0.422-0.202 0.157 0 0.276 0.039 0.357 0.116s0.133 0.202 0.153 0.376h0.419c-0.027-0.266-0.121-0.47-0.285-0.615s-0.378-0.218-0.645-0.218c-0.198 0-0.373 0.047-0.525 0.141-0.152 0.097-0.271 0.234-0.345 0.397l-0.002 0.006c-0.077 0.169-0.122 0.367-0.122 0.576 0 0.010 0 0.019 0 0.029l-0-0.001v0.226c0.003 0.223 0.045 0.419 0.125 0.587s0.193 0.299 0.339 0.391c0.148 0.091 0.318 0.136 0.511 0.136 0.276 0 0.497-0.072 0.663-0.216zM19.918 31.331c0.082-0.18 0.123-0.388 0.123-0.625v-0.135c0-0.007 0-0.015 0-0.024 0-0.216-0.047-0.421-0.131-0.605l0.004 0.009c-0.077-0.171-0.199-0.311-0.35-0.407l-0.004-0.002c-0.152-0.095-0.326-0.143-0.524-0.143s-0.372 0.048-0.525 0.144c-0.152 0.095-0.27 0.234-0.354 0.414-0.079 0.175-0.125 0.38-0.125 0.595 0 0.011 0 0.021 0 0.032l-0-0.002v0.136c0.001 0.232 0.043 0.436 0.126 0.613 0.084 0.177 0.203 0.315 0.356 0.411s0.329 0.143 0.525 0.143c0.199 0 0.374-0.048 0.526-0.143s0.27-0.234 0.352-0.412zM19.468 29.963c0.102 0.143 0.152 0.349 0.152 0.617v0.127c0 0.272-0.050 0.479-0.151 0.622-0.099 0.142-0.242 0.212-0.429 0.212-0.005 0-0.011 0-0.017 0-0.171 0-0.323-0.086-0.413-0.216l-0.001-0.002c-0.104-0.145-0.155-0.351-0.155-0.616v-0.14c0.002-0.261 0.054-0.462 0.156-0.604 0.091-0.13 0.24-0.215 0.409-0.215 0.006 0 0.012 0 0.018 0l-0.001-0c0.187 0 0.33 0.072 0.431 0.214z"></path>
</symbol>
<symbol id="icon-facebook" viewBox="0 0 32 32">
<path d="M21.328 5.312h2.923v-5.088c-1.232-0.143-2.66-0.224-4.107-0.224-0.052 0-0.104 0-0.157 0l0.008-0c-4.213 0-7.099 2.65-7.099 7.52v4.48h-4.646v5.688h4.646v14.312h5.699v-14.31h4.459l0.709-5.688h-5.17v-3.922c0-1.643 0.443-2.768 2.734-2.768z"></path>
</symbol>
<symbol id="icon-twitter" viewBox="0 0 32 32">
<path d="M32 6.078c-1.1 0.493-2.376 0.857-3.713 1.028l-0.068 0.007c1.36-0.817 2.382-2.078 2.873-3.579l0.013-0.046c-1.197 0.722-2.591 1.273-4.076 1.573l-0.084 0.014c-1.2-1.279-2.9-2.076-4.787-2.076-3.622 0-6.558 2.936-6.558 6.558 0 0.001 0 0.003 0 0.004v-0c0 0.52 0.043 1.021 0.152 1.496-5.454-0.266-10.28-2.88-13.522-6.861-0.564 0.949-0.899 2.092-0.902 3.313v0.001c0 2.272 1.171 4.286 2.914 5.451-1.091-0.030-2.107-0.325-2.994-0.823l0.033 0.017v0.072c0.003 3.165 2.236 5.807 5.213 6.44l0.043 0.008c-0.499 0.136-1.071 0.215-1.662 0.215-0.020 0-0.041-0-0.061-0l0.003 0c-0.419 0-0.843-0.024-1.242-0.112 0.85 2.598 3.261 4.509 6.13 4.57-2.215 1.746-5.045 2.8-8.122 2.8-0.004 0-0.008 0-0.013 0h0.001c-0.018 0-0.040 0-0.062 0-0.531 0-1.055-0.034-1.569-0.099l0.061 0.006c2.826 1.846 6.287 2.944 10.004 2.944 0.021 0 0.042-0 0.063-0h-0.003c12.072 0 18.672-10 18.672-18.669 0-0.288-0.010-0.57-0.024-0.848 1.299-0.936 2.39-2.064 3.258-3.355l0.030-0.047z"></path>
</symbol>
<symbol id="icon-antenna" viewBox="0 0 32 32">
<path fill="#212121" style="fill: var(--color3, #212121)" d="M30.773 22.098l-8.443-8.505 0.937-4.616c0.225 0.090 0.485 0.144 0.758 0.146h0.007c0.008 0 0.017 0 0.026 0 1.192 0 2.159-0.967 2.159-2.159s-0.967-2.159-2.159-2.159c-1.192 0-2.159 0.967-2.159 2.159 0 0.259 0.046 0.508 0.13 0.739l-0.005-0.015-4.96 0.606-8.091-8.133c-0.096-0.098-0.229-0.159-0.376-0.16h-0c-0.14 0.001-0.274 0.057-0.373 0.155l-1.512 1.504c-0.096 0.097-0.156 0.23-0.156 0.377s0.060 0.281 0.156 0.377v0l0.814 0.825c-1.143 2.062-1.816 4.522-1.816 7.139 0 4.106 1.656 7.824 4.336 10.525l-0.001-0.001c0.043 0.041 0.092 0.074 0.146 0.097-0.032 0.164-0.051 0.353-0.052 0.546v6.188h-6.4c-1.472 0.001-2.666 1.194-2.667 2.666v1.067c0 0.295 0.239 0.534 0.534 0.534h24.534c0.294 0 0.533-0.239 0.533-0.534v-1.067c-0.002-1.472-1.195-2.665-2.666-2.666h-6.4v-2.742c1.003 0.21 2.024 0.317 3.049 0.32 2.58-0.003 5.005-0.663 7.117-1.822l-0.077 0.039 0.818 0.823c0.099 0.101 0.235 0.159 0.376 0.16 0.14-0.001 0.274-0.057 0.373-0.155l1.512-1.504c0.096-0.097 0.156-0.23 0.156-0.377s-0.060-0.281-0.156-0.377v0zM23.28 6.233c0.193-0.192 0.459-0.31 0.752-0.31 0.589 0 1.067 0.478 1.067 1.066s-0.477 1.066-1.067 1.066c-0 0-0 0-0 0h-0.004c-0.587-0.003-1.061-0.479-1.061-1.066 0-0.295 0.12-0.563 0.314-0.756l0-0h-0.002zM22.024 9.737l-0.598 2.946-1.175-1.183 1.774-1.763zM21.419 8.835l-1.92 1.909-1.486-1.493 3.406-0.416zM24.004 28.8c0.884 0 1.6 0.716 1.6 1.6v0 0.534h-23.466v-0.534c0-0.884 0.716-1.6 1.6-1.6v0h20.267zM16.538 26.666v1.067h-5.334v-1.067h5.334zM11.204 25.6v-4.053c0-1.294 1.196-2.346 2.667-2.346s2.667 1.053 2.667 2.346v4.053h-5.334zM17.604 23.904v-2.357c0-1.882-1.675-3.413-3.733-3.413-0.017-0-0.038-0-0.058-0-1.353 0-2.54 0.707-3.213 1.771l-0.009 0.016c-2.36-2.482-3.812-5.846-3.812-9.55 0-2.314 0.567-4.496 1.569-6.414l-0.036 0.077 18.602 18.709c-1.823 0.947-3.979 1.502-6.266 1.502-1.079 0-2.128-0.124-3.136-0.357l0.093 0.018zM28.893 23.22l-21.057-21.181 0.754-0.752 7.935 7.98c0.004 0 0.006 0.007 0.010 0.010l13.114 13.191-0.757 0.752z"></path>
<path fill="#2196f3" style="fill: var(--color2, #2196f3)" d="M13.876 20.267h-0.005c-0.001 0-0.002 0-0.002 0-0.884 0-1.6 0.716-1.6 1.6s0.715 1.599 1.597 1.6h0.005c0.001 0 0.001 0 0.002 0 0.884 0 1.6-0.716 1.6-1.6s-0.715-1.599-1.598-1.6h-0zM14.249 22.245c-0.096 0.096-0.229 0.155-0.376 0.155-0.295 0-0.534-0.239-0.534-0.534s0.238-0.533 0.532-0.533h0c0.293 0.001 0.531 0.239 0.531 0.533 0 0.148-0.060 0.282-0.157 0.378l-0 0h0.005z"></path>
</symbol>
<symbol id="icon-linkedin" viewBox="0 0 32 32">
<path d="M31.992 32h0.008v-11.738c0-5.741-1.235-10.163-7.947-10.163-3.227 0-5.392 1.77-6.277 3.45h-0.093v-2.914h-6.365v21.363h6.627v-10.578c0-2.786 0.528-5.48 3.978-5.48 3.398 0 3.45 3.179 3.45 5.658v10.402h6.619zM0.528 10.635h6.635v21.365h-6.635v-21.365zM3.843 0c-2.123 0-3.843 1.721-3.843 3.843v0c0 2.12 1.722 3.878 3.843 3.878 2.12 0 3.842-1.757 3.842-3.878s-1.72-3.841-3.841-3.843h-0z"></path>
</symbol>
<symbol id="icon-instagram" viewBox="0 0 32 32">
<path d="M31.968 9.408c-0.074-1.701-0.349-2.869-0.742-3.882-0.424-1.111-1.054-2.059-1.85-2.837l-0.001-0.001c-0.78-0.792-1.724-1.419-2.778-1.827l-0.054-0.018c-1.019-0.394-2.181-0.667-3.882-0.742-1.712-0.082-2.256-0.101-6.602-0.101-4.344 0-4.888 0.019-6.595 0.094-1.699 0.074-2.869 0.349-3.88 0.742-1.112 0.424-2.060 1.054-2.839 1.85l-0.001 0.001c-0.791 0.78-1.418 1.724-1.825 2.778l-0.018 0.054c-0.395 1.019-0.669 2.181-0.744 3.882-0.082 1.712-0.101 2.256-0.101 6.602 0 4.344 0.019 4.888 0.094 6.595 0.075 1.701 0.35 2.869 0.744 3.882 0.426 1.11 1.055 2.057 1.849 2.837l0.001 0.001c0.8 0.813 1.77 1.443 2.832 1.843 1.019 0.395 2.182 0.67 3.882 0.744 1.707 0.075 2.251 0.094 6.595 0.094 4.346 0 4.89-0.019 6.595-0.094 1.701-0.074 2.869-0.349 3.882-0.742 2.157-0.85 3.833-2.526 4.664-4.628l0.019-0.055c0.394-1.019 0.669-2.182 0.744-3.882 0.075-1.707 0.093-2.251 0.093-6.595s-0.006-4.888-0.080-6.595zM29.088 22.474c-0.070 1.563-0.333 2.406-0.55 2.97-0.552 1.399-1.64 2.486-3.004 3.024l-0.036 0.012c-0.56 0.219-1.411 0.482-2.968 0.55-1.688 0.075-2.194 0.094-6.464 0.094-4.269 0-4.782-0.019-6.464-0.094-1.563-0.069-2.406-0.331-2.97-0.55-0.721-0.269-1.334-0.676-1.836-1.192l-0.001-0.001c-0.517-0.503-0.924-1.117-1.184-1.803l-0.011-0.034c-0.218-0.563-0.48-1.413-0.549-2.97-0.075-1.688-0.094-2.195-0.094-6.464 0-4.27 0.019-4.784 0.094-6.464 0.069-1.563 0.331-2.406 0.549-2.97 0.269-0.722 0.678-1.337 1.198-1.837l0.002-0.002c0.504-0.517 1.119-0.923 1.806-1.182l0.034-0.011c0.56-0.219 1.411-0.48 2.968-0.55 1.688-0.074 2.195-0.093 6.464-0.093 4.275 0 4.782 0.019 6.464 0.093 1.563 0.069 2.406 0.331 2.97 0.55 0.693 0.256 1.325 0.662 1.837 1.194 0.531 0.52 0.938 1.144 1.195 1.84 0.218 0.56 0.48 1.411 0.549 2.968 0.075 1.688 0.094 2.194 0.094 6.464 0 4.269-0.019 4.768-0.094 6.458z"></path>
<path d="M16.059 7.782c-4.539 0.002-8.218 3.682-8.219 8.221v0c0.091 4.471 3.737 8.060 8.221 8.060s8.13-3.589 8.221-8.052l0-0.009c-0.001-4.54-3.681-8.22-8.221-8.221h-0zM16.059 21.334c-2.945-0-5.332-2.388-5.332-5.333s2.388-5.333 5.333-5.333c0 0 0.001 0 0.001 0h-0c2.946 0 5.334 2.388 5.334 5.334s-2.388 5.334-5.334 5.334v0zM26.525 7.458c0 1.060-0.86 1.92-1.92 1.92s-1.92-0.86-1.92-1.92v0c0-1.060 0.86-1.92 1.92-1.92s1.92 0.86 1.92 1.92v0z"></path>
</symbol>
<symbol id="icon-astronaut" viewBox="0 0 32 32">
<path fill="#2196f3" style="fill: var(--color2, #2196f3)" d="M31.974 4.524c-0.064-0.191-0.227-0.332-0.427-0.362l-0.003-0-1.911-0.278-0.855-1.731c-0.179-0.365-0.777-0.365-0.956 0l-0.855 1.731-1.911 0.278c-0.26 0.039-0.457 0.26-0.457 0.528 0 0.15 0.062 0.285 0.161 0.382l1.383 1.348-0.326 1.903c-0.034 0.2 0.048 0.402 0.212 0.522 0.166 0.12 0.383 0.135 0.562 0.040l1.709-0.899 1.709 0.899c0.072 0.038 0.157 0.061 0.247 0.061 0.295 0 0.534-0.239 0.534-0.534 0-0.031-0.003-0.062-0.008-0.092l0 0.003-0.326-1.903 1.383-1.348c0.099-0.097 0.161-0.233 0.161-0.382 0-0.059-0.009-0.115-0.027-0.168l0.001 0.004zM29.511 5.851c-0.126 0.122-0.183 0.299-0.153 0.472l0.191 1.114-1-0.526c-0.072-0.039-0.158-0.062-0.249-0.062s-0.177 0.023-0.252 0.063l0.003-0.001-1 0.526 0.191-1.114c0.005-0.027 0.008-0.059 0.008-0.091 0-0.149-0.061-0.285-0.16-0.381l-0-0-0.811-0.79 1.119-0.162c0.174-0.025 0.324-0.134 0.402-0.292l0.5-1.013 0.5 1.013c0.078 0.158 0.228 0.267 0.402 0.292l1.119 0.162-0.809 0.79zM26.134 20.522h-1.067v1.067h1.067v-1.067zM26.134 22.656h-1.067v1.066h1.067v-1.066zM27.2 21.589h-1.067v1.067h1.067v-1.067zM25.067 21.589h-1.067v1.067h1.067v-1.067zM22.4 26.389h-1.067v1.067h1.067v-1.067zM22.4 28.523h-1.067v1.067h1.067v-1.067zM23.467 27.456h-1.067v1.067h1.067v-1.067zM21.334 27.456h-1.067v1.067h1.067v-1.067zM16 24.256h-1.066v1.067h1.066v-1.067zM16 26.389h-1.066v1.067h1.066v-1.067zM17.067 25.322h-1.067v1.067h1.067v-1.067zM14.934 25.322h-1.067v1.067h1.067v-1.067zM5.867 6.122h-1.066v1.066h1.066v-1.066zM5.867 8.256h-1.066v1.066h1.066v-1.066zM6.933 7.189h-1.067v1.067h1.066v-1.067zM4.8 7.189h-1.067v1.067h1.067v-1.067z"></path>
<path fill="#212121" style="fill: var(--color3, #212121)" d="M24.715 14.16c-0.28-0.376-0.699-0.636-1.179-0.703l-0.009-0.001c-0.076-0.012-0.164-0.018-0.254-0.018-0.411 0-0.789 0.139-1.090 0.373l0.004-0.003-1.253 0.96-1.898 1.417-1.358-0.541c2.421-1.086 4.113-3.508 4.113-6.32 0-3.823-3.122-6.934-6.961-6.934s-6.961 3.11-6.961 6.934c0 1.386 0.415 2.674 1.12 3.759l-2.768-0.024c-0.009 0-0.016 0.005-0.023 0.005-0.057 0.003-0.11 0.014-0.159 0.033l0.004-0.001c-0.013 0.005-0.026 0.007-0.038 0.013-0.006 0.003-0.013 0.003-0.019 0.006l-3.233 1.596c-0 0-0.001 0-0.001 0.001l-1.893 0.91c-0.024 0.011-0.045 0.023-0.065 0.036l0.001-0.001c-0.482 0.324-0.795 0.867-0.795 1.483 0 0.297 0.073 0.577 0.201 0.823l-0.005-0.010c0.22 0.424 0.592 0.742 1.043 0.885l0.013 0.003c0.161 0.053 0.345 0.083 0.537 0.083 0.308 0 0.598-0.078 0.851-0.216l-0.009 0.005 1.388-0.738 2.264-1.169 1.357-0.008-5.442 5.415c0 0.001-0.001 0.001-0.001 0.001l-1.339 1.333c-0.303 0.299-0.491 0.714-0.491 1.173 0 0.002 0 0.003 0 0.005v-0c0.002 0.919 0.748 1.664 1.667 1.664 0.001 0 0.002 0 0.002 0h-0c0.428 0 0.854-0.162 1.18-0.485l1.314-1.309 1.741-1.3 0.901 0.897-3.102 3.088c-0.303 0.299-0.491 0.714-0.491 1.173 0 0.001 0 0.003 0 0.004v-0c0 0.445 0.174 0.864 0.49 1.179 0.302 0.3 0.717 0.485 1.176 0.485 0.001 0 0.002 0 0.003 0h-0c0.427 0 0.855-0.162 1.18-0.485l4.488-4.472c0.007-0.006 0.016-0.009 0.022-0.016l5.166-5.658 3.471 0.494c0.025 0.004 0.050 0.006 0.075 0.006 0.064 0 0.127-0.016 0.187-0.038 0.017-0.006 0.032-0.015 0.049-0.023 0.019-0.010 0.039-0.015 0.058-0.027l3.213-2.133c0.012-0.008 0.018-0.021 0.029-0.030 0.013-0.010 0.029-0.014 0.041-0.026l1.271-1.191c0.348-0.326 0.564-0.787 0.564-1.3 0-0.4-0.132-0.769-0.355-1.066l0.003 0.005zM2.13 17.77c-0.098 0.054-0.215 0.086-0.34 0.086-0.078 0-0.153-0.013-0.224-0.036l0.005 0.001c-0.294-0.093-0.504-0.364-0.504-0.683 0-0.235 0.114-0.444 0.289-0.575l0.002-0.001 1.314-0.632 0.316 0.924 0.133 0.389-0.992 0.527zM5.627 15.942l-1.548 0.8-0.255-0.746-0.184-0.537 2.027-1.001-0.040 1.484zM20.727 9.322c0 0.918-0.219 1.785-0.599 2.56l-4.181-1.899c-0.044-0.575-0.342-1.072-0.782-1.384l-0.006-0.004 1.464-4.861c2.377 0.757 4.104 2.975 4.104 5.588zM8.938 9.322c0-3.235 2.644-5.867 5.894-5.867 0.253 0 0.5 0.022 0.745 0.053l-1.432 4.753c-0.019 0-0.037-0.006-0.057-0.006-0 0-0.001 0-0.001 0-1.032 0-1.869 0.835-1.872 1.867v0c0.003 1.031 0.84 1.867 1.872 1.867 0 0 0 0 0.001 0h-0c0.695 0 1.295-0.383 1.618-0.944l3.863 1.755c-1.075 1.447-2.795 2.39-4.737 2.39-3.25 0-5.894-2.632-5.894-5.867zM14.895 10.122c0 0.441-0.362 0.8-0.806 0.8-0 0-0.001 0-0.001 0-0.443 0-0.802-0.358-0.804-0.8v-0c0-0.441 0.361-0.8 0.806-0.8s0.806 0.359 0.806 0.8zM2.464 25.146c-0.11 0.109-0.261 0.176-0.428 0.176s-0.317-0.067-0.427-0.175l0 0c-0.109-0.108-0.176-0.257-0.176-0.422s0.067-0.314 0.176-0.422l0-0 0.962-0.959 0.852 0.848-0.959 0.954zM5.678 28.88c-0.11 0.109-0.261 0.176-0.428 0.176s-0.317-0.067-0.427-0.175l0 0c-0.109-0.108-0.176-0.257-0.176-0.422s0.067-0.314 0.176-0.422l0-0 0.963-0.959 0.852 0.848-0.96 0.955zM9.16 25.411l-0.001 0.001-1.765 1.76-0.852-0.848 1.765-1.757c0.040-0.040 0.065-0.088 0.090-0.136 0.007-0.014 0.020-0.026 0.026-0.040 0.016-0.041 0.019-0.085 0.026-0.128 0.003-0.025 0.014-0.048 0.014-0.073 0-0.035-0.013-0.070-0.020-0.105-0.006-0.032-0.006-0.064-0.019-0.096-0.025-0.053-0.055-0.098-0.092-0.138l0 0c-0.010-0.012-0.014-0.026-0.025-0.038h-0.001s0-0.001-0.001-0.002l-1.607-1.6c-0.017-0.017-0.039-0.024-0.058-0.038-0.025-0.021-0.054-0.040-0.084-0.056l-0.003-0.001c-0.026-0.012-0.058-0.023-0.090-0.031l-0.003-0.001c-0.030-0.009-0.065-0.017-0.101-0.020l-0.002-0c-0.007-0-0.015-0-0.023-0-0.026 0-0.051 0.002-0.075 0.005l0.003-0c-0.036 0.005-0.069 0.009-0.104 0.021s-0.064 0.027-0.094 0.045c-0.020 0.011-0.043 0.015-0.061 0.029l-1.774 1.324-0.901-0.897 2.399-2.386 4.36 4.289-0.928 0.919zM15.979 18.394c-0.016-0.002-0.030 0.004-0.046 0.003-0.008-0-0.017-0.001-0.027-0.001-0.031 0-0.062 0.003-0.092 0.008l0.003-0c-0.070 0.011-0.132 0.035-0.187 0.070l0.002-0.001c-0.030 0.018-0.057 0.037-0.083 0.061-0.013 0.011-0.028 0.016-0.040 0.029l-4.698 5.146-4.328-4.256 2.833-2.818c0.096-0.097 0.156-0.23 0.156-0.377 0-0.295-0.239-0.534-0.534-0.534-0.001 0-0.001 0-0.002 0h0l-2.219 0.013 0.028-1.607 3.104 0.027c1.264 1.297 3.027 2.101 4.978 2.101 0.001 0 0.002 0 0.003 0h-0c0.438 0 0.864-0.046 1.28-0.122 0.040 0.032 0.080 0.064 0.129 0.085l2.41 0.96 0.152 0.758 0.178 0.886-3.003-0.427zM20.020 18.572l-0.313-1.558 1.446-1.080 0.946 1.257-2.080 1.381zM23.773 15.741l-0.837 0.785-0.931-1.236 0.831-0.637c0.155-0.119 0.351-0.168 0.543-0.143 0.193 0.027 0.364 0.128 0.48 0.284 0.088 0.117 0.141 0.265 0.141 0.426 0 0.206-0.087 0.391-0.226 0.521l-0 0z"></path>
<path fill="#212121" style="fill: var(--color3, #212121)" d="M13.602 18.544l-2.143-2.134c-0.096-0.096-0.229-0.155-0.376-0.155s-0.28 0.059-0.376 0.155l-2.143 2.133c-0.097 0.097-0.156 0.23-0.156 0.378s0.060 0.281 0.156 0.378l-0-0 2.142 2.134c0.096 0.096 0.229 0.156 0.376 0.156s0.28-0.059 0.376-0.156v0l2.143-2.134c0.097-0.097 0.157-0.23 0.157-0.378s-0.060-0.281-0.157-0.378l-0-0zM11.083 20.303l-1.387-1.381 1.386-1.381 1.387 1.381-1.387 1.381zM17.164 5.071l-0.258 1.036c0.071 0.018 1.738 0.452 1.738 2.149h1.067c0-2.017-1.666-2.965-2.547-3.184zM19.711 9.322h-1.067v1.066h1.067v-1.066z"></path>
</symbol>
<symbol id="icon-diagram" viewBox="0 0 32 32">
<path fill="#2196f3" style="fill: var(--color2, #2196f3)" d="M14.926 14.965h1.066v4.798h-1.066v-4.798zM19.19 17.097h1.066v2.665h-1.066v-2.665zM10.661 18.696h1.066v1.066h-1.066v-1.066zM7.463 18.163h1.066v1.599h-1.066v-1.599z"></path>
<path fill="#212121" style="fill: var(--color3, #212121)" d="M1.599 28.2h25.586c0 0 0 0 0 0 0.883 0 1.599-0.716 1.599-1.599v0-2.132c0-0.883-0.716-1.599-1.599-1.599v0h-0.533v-13.294l3.028-2.868c0.207 0.104 0.452 0.166 0.711 0.166 0.888 0 1.608-0.72 1.608-1.608s-0.72-1.608-1.608-1.608c-0.888 0-1.608 0.72-1.608 1.608 0 0.247 0.056 0.481 0.155 0.69l-0.004-0.010-2.281 2.162v-1.23c0-0.883-0.716-1.599-1.599-1.599v0h-21.323c-0.883 0-1.599 0.716-1.599 1.599v0 15.992h-0.533c-0.883 0-1.599 0.716-1.599 1.599v0 2.132c0 0.883 0.716 1.599 1.599 1.599v0zM30.384 4.746c0.294 0 0.533 0.239 0.533 0.533s-0.239 0.533-0.533 0.533v0c-0.294 0-0.533-0.239-0.533-0.533s0.239-0.533 0.533-0.533v0zM3.198 6.878c0-0.294 0.239-0.533 0.533-0.533h21.323c0.294 0 0.533 0.239 0.533 0.533v2.239l-1.066 1.013v-2.185c0-0.295-0.239-0.534-0.534-0.534h-19.189c-0.294 0-0.534 0.239-0.534 0.533v13.327c0 0.294 0.239 0.533 0.534 0.533h19.189c0.295 0 0.534-0.239 0.534-0.533v-9.675l1.066-1.010v12.283h-22.389v-15.991zM7.996 13.808c-0.001 0-0.003 0-0.005 0-0.883 0-1.599 0.716-1.599 1.599s0.716 1.599 1.599 1.599c0.432 0 0.824-0.172 1.112-0.45l-0 0 1.853 0.929c0.215 0.108 0.476 0.058 0.636-0.122l3.939-4.431 3.872 2.902c0.208 0.155 0.498 0.139 0.686-0.039l3.365-3.188v8.131h-18.123v-12.261h18.123v2.661l-3.771 3.572-3.904-2.928c-0.088-0.067-0.199-0.107-0.32-0.107-0.158 0-0.3 0.069-0.398 0.178l-0 0.001-3.993 4.493-1.493-0.746c0.010-0.056 0.017-0.123 0.020-0.19l0-0.003c0-0.883-0.716-1.599-1.599-1.599v0zM8.529 15.407c0 0.294-0.239 0.533-0.533 0.533s-0.533-0.239-0.533-0.533v0c0-0.294 0.239-0.533 0.533-0.533s0.533 0.239 0.533 0.533v0zM11.727 23.936h5.33v0.533c0 0.294-0.238 0.533-0.533 0.533h-4.265c-0.294 0-0.533-0.239-0.533-0.533v0-0.533zM1.067 24.469c0-0.294 0.238-0.533 0.533-0.533h9.062v0.533c0 0.883 0.716 1.599 1.599 1.599v0h4.265c0.883 0 1.599-0.716 1.599-1.599v0-0.533h9.062c0.294 0 0.533 0.239 0.533 0.533v2.132c0 0.294-0.239 0.533-0.533 0.533h-25.586c-0 0-0 0-0 0-0.294 0-0.533-0.239-0.533-0.533 0 0 0 0 0 0v0-2.132z"></path>
</symbol>
<symbol id="icon-clock" viewBox="0 0 32 32">
<path fill="#212121" style="fill: var(--color3, #212121)" d="M31.523 15.301c-0.001-8.452-6.855-15.303-15.307-15.301s-15.304 6.855-15.302 15.308c0.002 6.788 4.422 12.543 10.541 14.545l0.108 0.031c0.060 0.019 0.123 0.029 0.187 0.029 0.121 0 0.239-0.032 0.343-0.094 0.135-0.080 0.235-0.207 0.283-0.357l3.865-12.25c1.053-0.004 1.906-0.859 1.906-1.913 0-1.056-0.856-1.913-1.913-1.913-0.303 0-0.59 0.071-0.845 0.196l0.011-0.005-5.106-5.107c-0.114-0.11-0.271-0.179-0.443-0.179-0.352 0-0.638 0.286-0.638 0.638 0 0.172 0.068 0.328 0.179 0.443l-0-0 5.103 5.109c-0.121 0.241-0.191 0.525-0.191 0.825 0 0.602 0.283 1.137 0.724 1.481l0.004 0.003-3.683 11.673c-7.278-2.681-11.004-10.754-8.324-18.032s10.754-11.004 18.032-8.323c7.278 2.681 11.004 10.754 8.323 18.032-1.345 3.581-4.003 6.406-7.374 7.938l-0.088 0.036-0.398-1.874c-0.063-0.291-0.318-0.506-0.624-0.506-0.164 0-0.313 0.062-0.426 0.163l0.001-0.001-3.837 3.426c-0.132 0.117-0.214 0.287-0.214 0.477 0 0.283 0.185 0.524 0.441 0.606l0.005 0.001 4.899 1.563c0.058 0.020 0.126 0.031 0.196 0.031 0.352 0 0.637-0.285 0.637-0.637 0-0.047-0.005-0.093-0.015-0.138l0.001 0.004-0.391-1.839c5.528-2.374 9.329-7.772 9.329-14.057 0-0.011 0-0.023-0-0.034v0.002zM16.219 14.664c0.352 0 0.638 0.286 0.638 0.638s-0.285 0.638-0.638 0.638v0c-0.352 0-0.638-0.286-0.638-0.638s0.286-0.638 0.638-0.638v0zM18.32 29.528l2.184-1.948 0.603 2.84-2.787-0.892z"></path>
<path fill="#2196f3" style="fill: var(--color2, #2196f3)" d="M15.354 3.185v1.275c0 0.352 0.286 0.638 0.638 0.638s0.638-0.285 0.638-0.638v0-1.275c0-0.352-0.285-0.638-0.638-0.638s-0.638 0.285-0.638 0.638v0zM3.876 14.664c-0.352 0-0.638 0.286-0.638 0.638s0.285 0.638 0.638 0.638h1.275c0.352 0 0.638-0.286 0.638-0.638s-0.285-0.638-0.638-0.638h-1.275zM28.108 15.939c0.352 0 0.638-0.286 0.638-0.638s-0.285-0.638-0.638-0.638h-1.275c-0.352 0-0.638 0.286-0.638 0.638s0.285 0.638 0.638 0.638h1.275z"></path>
</symbol>
<symbol id="icon-smartphone" viewBox="0 0 20 32">
<path d="M17 0h-14c-1.654 0-3 1.346-3 3v26c0 1.654 1.346 3 3 3h14c1.654 0 3-1.346 3-3v-26c0-1.654-1.346-3-3-3zM3 2h14c0.552 0 1 0.448 1 1v0 21h-16v-21c0-0.552 0.448-1 1-1v0zM17 30h-14c-0.552 0-1-0.448-1-1v0-3h16v3c0 0.552-0.448 1-1 1v0z"></path>
<path d="M4.708 27.478c0.18 0.163 0.293 0.399 0.293 0.66s-0.113 0.497-0.292 0.659l-0.001 0.001c-0.186 0.17-0.435 0.275-0.708 0.275s-0.522-0.104-0.709-0.275l0.001 0.001c-0.18-0.163-0.293-0.399-0.293-0.66s0.113-0.497 0.292-0.659l0.001-0.001c0.186-0.17 0.435-0.275 0.708-0.275s0.522 0.104 0.709 0.275l-0.001-0.001z"></path>
</symbol>
<symbol id="icon-post" viewBox="0 0 43 32">
<path d="M38.667 0h-34.667c-2.205 0-4 1.795-4 4v24c0 2.205 1.795 4 4 4h34.667c2.205 0 4-1.795 4-4v-24c0-2.205-1.795-4-4-4zM38.667 2.667c0.181 0 0.355 0.037 0.512 0.104l-17.845 15.467-17.845-15.467c0.151-0.065 0.327-0.104 0.512-0.104h34.667zM38.667 29.333h-34.667c-0.736 0-1.333-0.597-1.333-1.333v0-22.413l17.792 15.421c0.233 0.203 0.539 0.327 0.875 0.327s0.642-0.124 0.876-0.328l-0.002 0.001 17.792-15.421v22.413c0 0.736-0.597 1.333-1.333 1.333v0z"></path>
</symbol>
<symbol id="icon-close" viewBox="0 0 32 32">
<path d="M32 3.223l-3.223-3.223-12.777 12.777-12.777-12.777-3.223 3.223 12.777 12.777-12.777 12.777 3.223 3.223 12.777-12.777 12.777 12.777 3.223-3.223-12.777-12.777 12.777-12.777z"></path>
</symbol>
<symbol id="icon-phone" viewBox="0 0 32 32">
<path d="M24.882 19.774l-3.268-0.373c-0.090-0.011-0.194-0.018-0.3-0.018-0.707 0-1.347 0.287-1.81 0.75l-2.368 2.368c-3.669-1.894-6.585-4.81-8.427-8.372l-0.051-0.108 2.382-2.377c0.463-0.463 0.75-1.103 0.75-1.81 0-0.106-0.006-0.21-0.019-0.312l0.001 0.012-0.373-3.243c-0.155-1.287-1.24-2.276-2.557-2.276-0.001 0-0.002 0-0.003 0h-2.226c-1.454 0-2.663 1.209-2.574 2.661 0.683 10.987 9.47 19.762 20.444 20.444 1.452 0.089 2.663-1.12 2.663-2.574v-2.226c0-0.004 0-0.008 0-0.012 0-1.308-0.985-2.386-2.253-2.532l-0.012-0.001z"></path>
</symbol>
<symbol id="icon-email" viewBox="0 0 32 32">
<path d="M24 5.333h-21.333c-1.467 0-2.654 1.2-2.654 2.667l-0.012 16c0 1.467 1.2 2.667 2.667 2.667h21.333c1.467 0 2.667-1.2 2.667-2.667v-16c0-1.467-1.2-2.667-2.667-2.667zM23.467 11.001l-9.426 5.892c-0.201 0.126-0.445 0.2-0.707 0.2s-0.506-0.075-0.712-0.203l0.006 0.003-9.428-5.892c-0.336-0.201-0.557-0.562-0.557-0.975 0-0.625 0.507-1.132 1.132-1.132 0.233 0 0.449 0.070 0.629 0.19l-0.004-0.003 8.933 5.586 8.933-5.588c0.176-0.118 0.392-0.188 0.624-0.188 0.625 0 1.132 0.507 1.132 1.132 0 0.413-0.221 0.775-0.552 0.972l-0.005 0.003z"></path>
</symbol>
<symbol id="icon-person" viewBox="0 0 32 32">
<path d="M16 16c2.946 0 5.333-2.388 5.333-5.333s-2.388-5.333-5.333-5.333v0c-2.946 0-5.333 2.388-5.333 5.333s2.388 5.333 5.333 5.333v0zM16 18.667c-3.561 0-10.667 1.787-10.667 5.333v1.333c0 0.732 0.599 1.333 1.333 1.333h18.667c0.732 0 1.333-0.601 1.333-1.333v-1.333c0-3.547-7.108-5.333-10.667-5.333z"></path>
</symbol>
<symbol id="icon-airplane" viewBox="0 0 32 32">
<path d="M32 0l-32 18 10.227 3.787 15.773-14.787-11.997 16.187 0.009 0.003-0.012-0.003v8.813l5.735-6.691 7.267 2.691 4.999-28z"></path>
</symbol>
<symbol id="icon-menu-open" viewBox="0 0 32 32">
<path d="M6.4 11.734v-2.134h19.2v2.134h-19.2zM6.4 17.066h19.2v-2.133h-19.2v2.133zM6.4 22.4h19.2v-2.134h-19.2v2.134z"></path>
</symbol>
<symbol id="icon-menu-close" viewBox="0 0 32 32">
<path d="M23.734 10.304l-1.504-1.504-5.963 5.962-5.962-5.962-1.504 1.504 5.962 5.962-5.962 5.963 1.504 1.504 5.962-5.963 5.963 5.963 1.504-1.504-5.963-5.963 5.963-5.962z"></path>
</symbol>
</defs>
</svg>
